<svg width="44" height="65" viewBox="0 0 44 65" fill="none" xmlns="http://www.w3.org/2000/svg">
<path d="M32.9 27.1578C38.9937 27.8315 43.7333 32.9977 43.7333 39.2709V63.6459C43.7333 64.3938 43.127 65.0001 42.3792 65.0001C41.6313 65.0001 41.025 64.3938 41.025 63.6459V39.2709C41.025 34.4955 37.4937 30.5449 32.9 29.8878L32.9 46.0418C32.9 49.0333 30.4749 51.4584 27.4833 51.4584C25.065 51.4584 22.9283 50.8094 21.1144 49.51C20.4245 49.0159 19.5973 48.7502 18.7476 48.7502C18.0511 48.7501 17.4916 49.1533 17.2923 49.7512C16.9919 50.6526 17.1722 51.531 17.7304 52.1591L27.1413 62.7463C27.6381 63.3053 27.5878 64.1612 27.0288 64.6581C26.4698 65.1549 25.6139 65.1046 25.117 64.5456L18.2748 56.8481C18.1873 56.8658 18.0968 56.8751 18.0042 56.8751H7.17083C3.4314 56.8751 0.399994 53.8437 0.399994 50.1043V6.77084C0.399994 3.03141 3.4314 1.61817e-06 7.17083 1.61817e-06L26.1292 0C29.8686 1.11712e-06 32.9 3.03141 32.9 6.77084L32.9 27.1578ZM15.7062 53.9584C14.5043 52.6063 14.1162 50.7152 14.6882 48.999C15.2909 47.191 16.8853 46.0418 18.6823 46.0418C20.163 46.0418 21.5418 46.4847 22.6915 47.3083C24.0328 48.2691 25.6164 48.7501 27.4833 48.7501C28.9791 48.7501 30.1917 47.5375 30.1917 46.0418L30.1917 6.77084C30.1917 4.52718 28.3728 2.70833 26.1292 2.70833L7.17083 2.70834C4.92717 2.70834 3.10833 4.52718 3.10833 6.77084V50.1043C3.10833 52.3479 4.92717 54.1668 7.17083 54.1668H15.8914L15.7062 53.9584ZM12.5875 8.12511C11.8396 8.12511 11.2333 7.51882 11.2333 6.77094C11.2333 6.02305 11.8396 5.41677 12.5875 5.41677H20.7125C21.4604 5.41677 22.0667 6.02305 22.0667 6.77094C22.0667 7.51882 21.4604 8.12511 20.7125 8.12511H12.5875Z" fill="white"/>
</svg>
