<svg width="30" height="28" viewBox="0 0 30 28" fill="none" xmlns="http://www.w3.org/2000/svg">
<path d="M27.6902 0.00236442C27.284 0.020289 26.9054 0.13863 26.5722 0.273335C26.26 0.398903 25.0673 0.910448 23.1887 1.71607C21.3085 2.52239 18.8188 3.59128 16.163 4.73336C10.8514 7.01753 4.8798 9.5887 1.82112 10.9047C1.7061 10.9541 1.30478 11.0823 0.878823 11.4149C0.452869 11.7474 0 12.4364 0 13.2042C0 13.8234 0.295057 14.4384 0.666441 14.8056C1.03782 15.1729 1.4308 15.3543 1.76741 15.4916C2.98875 15.99 6.77667 17.5401 7.49197 17.8327C7.7437 18.6039 9.11475 22.7979 9.4327 23.8258C9.6423 24.5041 9.84181 24.9289 10.1016 25.2661C10.2315 25.4347 10.3824 25.5824 10.5654 25.6982C10.6385 25.7444 10.7187 25.7801 10.7998 25.8129L10.8046 25.8153C10.8233 25.8228 10.8394 25.8356 10.8583 25.8422C10.8941 25.8547 10.918 25.8562 10.9658 25.8666C11.1561 25.9281 11.3484 25.9667 11.5199 25.9667C12.2513 25.9667 12.699 25.5639 12.699 25.5639L12.7258 25.5444L16.4877 22.2903L21.0503 26.6063C21.1145 26.6971 21.7136 27.5193 23.0349 27.5193C23.8195 27.5193 24.4418 27.1256 24.8414 26.7064C25.241 26.2871 25.4899 25.8467 25.5957 25.2929V25.2905C25.6947 24.7672 29.8995 3.18077 29.8995 3.18077L29.8922 3.21007C30.0153 2.64823 30.0475 2.125 29.9117 1.60866C29.7759 1.09232 29.418 0.597952 28.9743 0.331923C28.5306 0.0659529 28.0965 -0.0155603 27.6902 0.00236442ZM27.4559 2.61442C27.4499 2.6509 27.4604 2.63256 27.451 2.67545L27.4486 2.6901L27.4461 2.70474C27.4461 2.70474 23.2934 24.0151 23.1399 24.8267C23.1511 24.7654 23.0998 24.8872 23.0471 24.9609C22.9727 24.9096 22.8201 24.8438 22.8201 24.8438L22.7957 24.8169L16.5634 18.9215L12.157 22.7297L13.468 17.4812C13.468 17.4812 21.6624 8.99868 22.1561 8.50498C22.5536 8.11001 22.637 7.97233 22.637 7.83609C22.637 7.65361 22.5419 7.52118 22.3294 7.52118C22.1382 7.52118 21.881 7.7071 21.7435 7.79459C19.9523 8.93642 12.0886 13.5195 8.56364 15.5697C8.00346 15.3405 4.11169 13.7474 2.7927 13.2091C2.80269 13.2047 2.7994 13.2063 2.80979 13.2018C5.86928 11.8855 11.8384 9.31435 17.1493 7.03051C19.8047 5.88859 22.2962 4.81889 24.175 4.01321C26.0248 3.21995 27.3101 2.674 27.4559 2.61442Z" fill="#1F1B20"/>
</svg>
