<svg width="50" height="46" viewBox="0 0 50 46" fill="none" xmlns="http://www.w3.org/2000/svg">
<path d="M46.1504 0.00394071C45.4733 0.033815 44.8424 0.23105 44.287 0.455558C43.7667 0.664838 41.7789 1.51741 38.6479 2.86012C35.5141 4.20399 31.3647 5.98547 26.9384 7.88894C18.0857 11.6959 8.133 15.9812 3.03519 18.1744C2.8435 18.2569 2.17463 18.4705 1.4647 19.0248C0.754781 19.579 0 20.7274 0 22.0071C0 23.0389 0.491761 24.064 1.11073 24.6761C1.72971 25.2881 2.38466 25.5905 2.94568 25.8194C4.98125 26.6499 11.2944 29.2334 12.4866 29.7212C12.9062 31.0064 15.1912 37.9965 15.7212 39.7096C16.0705 40.8402 16.403 41.5482 16.836 42.1101C17.0524 42.3911 17.3041 42.6373 17.609 42.8303C17.7309 42.9074 17.8645 42.9668 17.9996 43.0215L18.0077 43.0256C18.0389 43.0381 18.0657 43.0593 18.0972 43.0703C18.1568 43.0912 18.1966 43.0937 18.2763 43.111C18.5936 43.2135 18.9139 43.2778 19.1998 43.2778C20.4188 43.2778 21.165 42.6065 21.165 42.6065L21.2097 42.574L27.4795 37.1505L35.0838 44.3438C35.1908 44.4952 36.1894 45.8655 38.3915 45.8655C39.6991 45.8655 40.7364 45.2093 41.4023 44.5106C42.0683 43.8119 42.4832 43.0778 42.6595 42.1549V42.1508C42.8245 41.2787 49.8325 5.30129 49.8325 5.30129L49.8203 5.35011C50.0255 4.41372 50.0792 3.54166 49.8529 2.6811C49.6265 1.82053 49.03 0.996587 48.2905 0.553205C47.5511 0.109921 46.8275 -0.0259338 46.1504 0.00394071ZM45.7598 4.35737C45.7498 4.41817 45.7673 4.38759 45.7517 4.45908L45.7476 4.4835L45.7435 4.50791C45.7435 4.50791 38.8223 40.0251 38.5665 41.3778C38.5852 41.2756 38.4996 41.4787 38.4119 41.6016C38.2878 41.5161 38.0335 41.4063 38.0335 41.4063L37.9928 41.3615L27.6056 31.5358L20.2617 37.8828L22.4466 29.1353C22.4466 29.1353 36.104 14.9978 36.9268 14.175C37.5893 13.5167 37.7284 13.2872 37.7284 13.0602C37.7284 12.756 37.5698 12.5353 37.2157 12.5353C36.897 12.5353 36.4684 12.8452 36.2392 12.991C33.2539 14.894 20.1477 22.5326 14.2727 25.9496C13.3391 25.5675 6.85282 22.9124 4.65451 22.0152C4.67115 22.0079 4.66567 22.0105 4.68299 22.003C9.78213 19.8092 19.7307 15.5239 28.5821 11.7175C33.0078 9.81431 37.1604 8.03148 40.2916 6.68869C43.3746 5.36658 45.5168 4.45667 45.7598 4.35737Z" fill="#FFC773"/>
</svg>
