<svg width="30" height="30" viewBox="0 0 30 30" fill="none" xmlns="http://www.w3.org/2000/svg">
<path d="M14.988 0C6.72041 0 0 6.72041 0 14.988C0 17.5262 0.628339 20.0163 1.86122 22.2161L0.580274 26.906C0.362706 27.6554 0.57999 28.4289 1.136 28.9849C1.692 29.5409 2.46595 29.7585 3.21535 29.5651L8.09833 28.2837C10.2257 29.3957 12.5946 29.9759 15.012 29.9759C23.2796 29.9759 30 23.2555 30 14.988C30 10.9751 28.453 7.22788 25.6246 4.3995C22.772 1.57113 19.0009 0 14.988 0ZM14.988 1.45045C18.6141 1.45045 22.0225 2.85264 24.5608 5.4151C27.1233 7.97756 28.5496 11.386 28.5255 14.988C28.5255 22.4578 22.4578 28.5255 14.988 28.5255C12.7398 28.5255 10.4914 27.9451 8.5091 26.8814C8.41241 26.8331 8.29192 26.7851 8.17104 26.7851C8.09852 26.7851 8.04998 26.785 7.97746 26.8092L2.82818 28.1629C2.46557 28.2596 2.22421 28.066 2.12751 27.9693C2.03082 27.8726 1.83723 27.6312 1.93393 27.2686L3.28759 22.2884C3.33594 22.095 3.31204 21.9019 3.21535 21.7326C2.05499 19.702 1.45045 17.357 1.45045 14.988C1.45045 7.51815 7.51815 1.45045 14.988 1.45045ZM14.988 3.62612C8.72686 3.62612 3.62612 8.70269 3.62612 14.988C3.62612 16.9944 4.15814 18.9525 5.14928 20.6689C5.53606 21.3458 5.63257 22.1433 5.43918 22.8927L4.73804 25.431L7.44582 24.7303C7.68756 24.6578 7.9293 24.6335 8.17104 24.6335C8.65453 24.6335 9.13782 24.7544 9.54878 24.9961C11.2168 25.8664 13.0782 26.3498 14.988 26.3498C21.2491 26.3498 26.3498 21.2491 26.3498 14.988C26.3498 11.942 25.1651 9.08928 23.0136 6.93779C20.8863 4.81046 18.0339 3.62612 14.988 3.62612ZM9.93547 8.38823H10.6125C10.8785 8.38823 11.1441 8.41241 11.41 8.99259C11.7243 9.69364 12.4253 11.4584 12.4978 11.6277C12.5945 11.7969 12.6433 12.0144 12.5224 12.2561C12.4015 12.4978 12.3532 12.6429 12.1598 12.8604C11.9906 13.078 11.7727 13.3201 11.6277 13.4894C11.4584 13.6586 11.2651 13.852 11.4827 14.2146C11.7003 14.5772 12.4011 15.7374 13.4648 16.6801C14.8186 17.8889 15.979 18.2758 16.3416 18.445C16.7042 18.6143 16.8979 18.59 17.1155 18.3483C17.333 18.1065 18.0097 17.3086 18.2515 16.946C18.4932 16.5834 18.7351 16.6561 19.0494 16.7769C19.3878 16.8978 21.1283 17.7678 21.4909 17.937C21.8535 18.1062 22.095 18.2032 22.1675 18.3483C22.2642 18.5417 22.2645 19.2425 21.9744 20.0886C21.6843 20.9105 20.2338 21.7324 19.557 21.7808C18.9043 21.8291 18.2996 22.0711 15.2779 20.8865C11.6517 19.4603 9.35539 15.7373 9.18617 15.4955C9.01695 15.2538 7.73572 13.5619 7.73572 11.7972C7.73572 10.0325 8.65415 9.18617 8.99259 8.82356C9.33103 8.46095 9.69373 8.38823 9.93547 8.38823Z" fill="#1F1B20"/>
</svg>
