<svg width="50" height="50" viewBox="0 0 50 50" fill="none" xmlns="http://www.w3.org/2000/svg">
<path d="M24.9799 0C11.2007 0 0 11.2007 0 24.9799C0 29.2104 1.04723 33.3605 3.10203 37.0269L0.967123 44.8433C0.604511 46.0923 0.96665 47.3815 1.89333 48.3081C2.82 49.2348 4.10992 49.5976 5.35891 49.2752L13.4972 47.1396C17.0428 48.9929 20.991 49.9599 25.0201 49.9599C38.7993 49.9599 50 38.7592 50 24.9799C50 18.2918 47.4216 12.0465 42.7076 7.3325C37.9534 2.61855 31.6681 0 24.9799 0ZM24.9799 2.41741C31.0235 2.41741 36.7042 4.7544 40.9347 9.02517C45.2055 13.2959 47.5827 18.9767 47.5425 24.9799C47.5425 37.4296 37.4296 47.5425 24.9799 47.5425C21.2329 47.5425 17.4856 46.5752 14.1818 44.8024C14.0207 44.7218 13.8199 44.6419 13.6184 44.6419C13.4975 44.6419 13.4166 44.6417 13.2958 44.682L4.71364 46.9381C4.10929 47.0993 3.70701 46.7766 3.54585 46.6155C3.38469 46.4543 3.06206 46.052 3.22322 45.4477L5.47931 37.1473C5.55989 36.8249 5.52007 36.5031 5.35891 36.2211C3.42498 32.8367 2.41741 28.9284 2.41741 24.9799C2.41741 12.5303 12.5303 2.41741 24.9799 2.41741ZM24.9799 6.04353C14.5448 6.04353 6.04353 14.5045 6.04353 24.9799C6.04353 28.324 6.93023 31.5875 8.58213 34.4481C9.22677 35.5763 9.38762 36.9055 9.0653 38.1545L7.89672 42.385L12.4097 41.2172C12.8126 41.0963 13.2155 41.0559 13.6184 41.0559C14.4242 41.0559 15.2297 41.2573 15.9146 41.6602C18.6947 43.1107 21.797 43.9163 24.9799 43.9163C35.4151 43.9163 43.9163 35.4151 43.9163 24.9799C43.9163 19.9034 41.9418 15.1488 38.356 11.563C34.8104 8.01744 30.0565 6.04353 24.9799 6.04353ZM16.5591 13.9804H17.6876C18.1308 13.9804 18.5735 14.0207 19.0167 14.9876C19.5404 16.1561 20.7089 19.0974 20.8297 19.3794C20.9909 19.6615 21.0721 20.0239 20.8706 20.4268C20.6692 20.8297 20.5886 21.0715 20.2663 21.4341C19.9843 21.7967 19.6212 22.2002 19.3794 22.4823C19.0974 22.7643 18.7752 23.0866 19.1379 23.691C19.5005 24.2953 20.6686 26.2289 22.4413 27.8002C24.6976 29.8148 26.6317 30.4597 27.236 30.7417C27.8404 31.0238 28.1632 30.9833 28.5258 30.5804C28.8884 30.1775 30.0162 28.8476 30.4191 28.2433C30.822 27.6389 31.2252 27.7601 31.749 27.9616C32.3131 28.163 35.2138 29.613 35.8182 29.895C36.4225 30.1771 36.8249 30.3387 36.9458 30.5804C37.107 30.9028 37.1074 32.0709 36.624 33.481C36.1405 34.8509 33.7231 36.2207 32.5949 36.3013C31.5071 36.3819 30.4994 36.7851 25.4631 34.8109C19.4196 32.4338 15.5923 26.2288 15.3103 25.8259C15.0283 25.423 12.8929 22.6031 12.8929 19.6619C12.8929 16.7208 14.4236 15.3103 14.9876 14.7059C15.5517 14.1016 16.1562 13.9804 16.5591 13.9804Z" fill="#FFC773"/>
</svg>
